<svg id="Layer_1" data-name="Layer 1" xmlns="http://www.w3.org/2000/svg" viewBox="0 0 800 800"><path d="M797.69,354.75a402.93,402.93,0,0,0-19.51-86.08,397.37,397.37,0,0,0-57.11-108,412.93,412.93,0,0,0-60.35-65,403.33,403.33,0,0,0-88-58.14A384.46,384.46,0,0,0,481.47,6.26c-10.31-2.13-20.66-4.12-31.26-4.67-9.84-.52-19.72-.49-29.53-1.59h-43.8c-4.62.76-9.3.71-14,.89-12.72.5-25.39,1.24-38,3.68C292.9,10.83,261.9,20.35,232.3,34.22a401.78,401.78,0,0,0-59,33.45,422.16,422.16,0,0,0-64.91,55.61,397.15,397.15,0,0,0-42.81,53.17c-23.89,35.76-42.06,74.24-53.29,115.84-5,18.47-9.38,37-10.6,56.29-.62,9.73-.47,19.5-1.66,29.19v43.8c1,3.84.73,7.84.78,11.69a262.94,262.94,0,0,0,7.47,56.95A396.18,396.18,0,0,0,55.64,605.75a403.75,403.75,0,0,0,259,185.44,360.61,360.61,0,0,0,63.62,8.37A428.93,428.93,0,0,0,427,799a412.26,412.26,0,0,0,52.79-7.1,404.8,404.8,0,0,0,190.61-98.28A403.27,403.27,0,0,0,777.26,532.09a386.6,386.6,0,0,0,21.8-106.37C800.48,402,800.42,378.33,797.69,354.75ZM398.3,718.07C223,717.32,79.48,573.72,79.81,399.15,80.15,222.57,223.69,79.52,399.31,79.9c176.13.38,319.46,144.57,318.78,319.49C717.41,575.18,573.27,718.82,398.3,718.07Z"/><path d="M418.86,303.7c0,33,0,66-.07,99,0,3.11.94,4.82,3.66,6.44q86,51.42,171.92,103c3.12,1.87,3.78,3.16,1.69,6.46q-14,22.14-27.48,44.62c-1.67,2.76-2.86,2.93-5.56,1.26Q463,502.77,362.87,441.31c-3-1.83-4-3.84-4-7.29q.15-114.49,0-229c0-4.4,1.13-5.62,5.55-5.55,16.57.26,33.15.22,49.72,0,3.78,0,4.81,1,4.79,4.78C418.79,237.4,418.86,270.55,418.86,303.7Z"/></svg>